<?xml version="1.0" ?>
<!-- Uploaded to: SVG Repo, www.svgrepo.com, Generator: SVG Repo Mixer Tools -->
<svg fill="#000000" width="800px" height="800px" viewBox="0 0 64 64" xmlns="http://www.w3.org/2000/svg">
<g id="a"/>
<g id="b"/>
<g id="c"/>
<g id="d"/>
<g id="e"/>
<g id="f"/>
<g id="g"/>
<g id="h"/>
<g id="i"/>
<g id="j"/>
<g id="k"/>
<g id="l"/>
<g id="m"/>
<g id="n"/>
<g id="o"/>
<g id="p"/>
<g id="q"/>
<g id="r"/>
<g id="s"/>
<g id="t"/>
<g id="u"/>
<g id="v"/>
<g id="w"/>
<g id="x"/>
<g id="y"/>
<g id="a`"/>
<g id="aa"/>
<g id="ab"/>
<g id="ac"/>
<g id="ad"/>
<g id="ae"/>
<g id="af"/>
<g id="ag"/>
<g id="ah"/>
<g id="ai"/>
<g id="aj"/>
<g id="ak"/>
<g id="al"/>
<g id="am"/>
<g id="an"/>
<g id="ao"/>
<g id="ap"/>
<g id="aq"/>
<g id="ar"/>
<g id="as"/>
<g id="at"/>
<g id="au"/>
<g id="av"/>
<g id="aw">
<path d="M47.1,4.54c-.77-.55-1.78-.71-2.71-.36l-3.13,1.18c-1.04,.39-1.57,1.55-1.18,2.59l2.8,7.58-3.57,10.72-1.39-1.1c-.69-.55-1.55-.85-2.43-.85h-5.48l-8.13-7.99c-.67-.65-1.58-.99-2.51-.92l-11.13,.79c-1.05,.07-1.92,.85-2.11,1.88l-2.09,11.15c-.1,.54,.06,1.11,.44,1.51,.38,.4,.93,.61,1.48,.54l9.92-1.13,.95,1.24-2.62,4.56c-.53,.92-.33,2.1,.47,2.8l7.6,6.61c.78,.68,1.91,.79,2.8,.27l1.54-.89,12.6,14.16c.56,.63,1.59,1.09,2.44,1.09h5.32c.82,0,1.49-.67,1.49-1.49,0-.33-.11-.66-.32-.92l-3.45-4.4,1.23-2.42h1.81c.98-.02,1.9-.56,2.38-1.42l6.7-11.9c.43-.77,.59-1.67,.45-2.54l-2.82-17.11,4.75-2.7c.5-.28,.8-.79,.8-1.37,0-.57-.28-1.09-.78-1.38-8.64-5.13-5.92-3.36-12.13-7.8Zm-5.14,2.69l3.13-1.18c.29-.11,.6-.06,.84,.11l2.82,2.02-3.18,.37c-.4,.05-.73,.33-.84,.71l-.9,3.07-1.87-5.1Zm-22.45,10.16c.36-.03,.71,.1,.96,.35l6.68,6.56h-4.66c-.98,0-1.9,.53-2.39,1.38l-2.2,3.83-8.69-11.39,10.3-.73Zm-11.65,2.26l6.6,8.65-8.4,.96,1.8-9.61Zm16.21,24.24c-.16,.09-.35,.07-.49-.05l-7.6-6.61c-.08-.07-.1-.2-.05-.29l5.9-10.27c.13-.23,.38-.38,.65-.38h12.99c.43,0,.85,.15,1.19,.41l2.51,1.99h0l4.73,3.76-19.85,11.43Zm10.58,6.86h9.03l-1.05,2.08-2.22,4.39-5.76-6.47Zm11.28,7.23h-3.67l1.44-2.84,2.23,2.84Zm2.44-9.64c-.13,.23-.38,.38-.65,.38l-14.85,.02-4.49-5.04,17.42-10.03,9.16,2.95-6.6,11.72Zm6.82-13.75l-9.02-2.9-5.19-4.12,5.49-17.12,4.2-.49c2.12,9.34,1.14,4.08,4.52,24.63Zm-1.16-18.88l-1.09-4.8,4.66,2.77-3.57,2.03Z"/>
</g>
<g id="ax"/>
</svg>