<?xml version="1.0" ?>
<!-- Uploaded to: SVG Repo, www.svgrepo.com, Generator: SVG Repo Mixer Tools -->
<svg fill="#000000" width="800px" height="800px" viewBox="0 0 64 64" xmlns="http://www.w3.org/2000/svg">
<g id="a"/>
<g id="b"/>
<g id="c"/>
<g id="d"/>
<g id="e"/>
<g id="f"/>
<g id="g"/>
<g id="h"/>
<g id="i"/>
<g id="j"/>
<g id="k"/>
<g id="l"/>
<g id="m"/>
<g id="n"/>
<g id="o"/>
<g id="p"/>
<g id="q"/>
<g id="r">
<path d="M51.42,19.73l-3.22-10.48c-.13-.41-.4-.75-.78-.95-.38-.2-.81-.24-1.22-.12-.25,.08-.48,.22-.66,.4l-5.43,5.43L30.86,4.78c-.7-.7-1.72-.95-2.67-.66h0l-10.48,3.22c-.41,.13-.75,.4-.95,.78-.2,.38-.24,.81-.12,1.22,.08,.25,.21,.47,.4,.66l5.43,5.43-9.24,9.24c-.7,.7-.95,1.72-.66,2.67l3.22,10.48c.13,.41,.4,.75,.78,.95,.38,.2,.81,.24,1.22,.12,.25-.08,.48-.22,.66-.4l5.43-5.43,4.16,4.16v20.79c0,1.1,.9,2,2,2h3.49c1.1,0,2-.9,2-2v-14.97l10.73-3.29c.41-.13,.75-.4,.95-.78,.2-.38,.24-.81,.12-1.22-.08-.25-.21-.47-.4-.66l-5.43-5.43,9.24-9.24c.7-.7,.95-1.72,.66-2.67Zm-4.94-9.26l2.99,9.72-13.52,2.37v-1.55l4.86-4.86h0l5.67-5.67Zm-13.43,9.12l-2.08-11.86,7.71,7.71-4.16,4.15h-1.48Zm.89,2v3.89h-3.89v-3.89h3.89Zm-15.01-12.54l9.72-2.99,2.37,13.52h-1.55l-4.86-4.86-5.67-5.67Zm4.97,7.79l4.16,4.16v1.48l-11.87,2.08,7.71-7.71Zm-6.38,19.75l-2.99-9.72,13.52-2.37v1.55l-4.86,4.86h0l-5.67,5.67Zm7.79-4.97l4.16-4.16h1.48l2.08,11.86-3.26-3.26h0l-4.45-4.45Zm4.74,26.36v-18.79l3.5,3.5v15.3h-3.5Zm15.01-19.99l-9.72,2.99-2.37-13.52h1.55l4.86,4.86h0l5.67,5.67Zm-4.97-7.79l-4.16-4.16v-1.48l11.87-2.08-7.71,7.71Z"/>
</g>
<g id="s"/>
<g id="t"/>
<g id="u"/>
<g id="v"/>
<g id="w"/>
<g id="x"/>
<g id="y"/>
<g id="a`"/>
<g id="aa"/>
<g id="ab"/>
<g id="ac"/>
<g id="ad"/>
<g id="ae"/>
<g id="af"/>
<g id="ag"/>
<g id="ah"/>
<g id="ai"/>
<g id="aj"/>
<g id="ak"/>
<g id="al"/>
<g id="am"/>
<g id="an"/>
<g id="ao"/>
<g id="ap"/>
<g id="aq"/>
<g id="ar"/>
<g id="as"/>
<g id="at"/>
<g id="au"/>
<g id="av"/>
<g id="aw"/>
<g id="ax"/>
</svg>